<?xml version="1.0" standalone="no"?>
<!DOCTYPE svg PUBLIC "-//W3C//DTD SVG 20010904//EN"
 "http://www.w3.org/TR/2001/REC-SVG-20010904/DTD/svg10.dtd">
<svg version="1.0" xmlns="http://www.w3.org/2000/svg"
 width="480.000000pt" height="270.000000pt" viewBox="0 0 480.000000 270.000000"
 preserveAspectRatio="xMidYMid meet">

<g transform="translate(0.000000,270.000000) scale(0.100000,-0.100000)"
fill="#000000" stroke="none">
<path d="M1624 2337 c-6 -18 69 -213 80 -207 5 3 19 -19 32 -47 35 -80 77 -69
54 13 -12 42 -15 45 -43 42 -30 -3 -31 -1 -60 80 -23 65 -27 86 -18 95 8 8 65
13 174 15 140 3 165 2 176 -12 11 -13 11 -19 1 -31 -10 -12 -40 -15 -151 -15
-77 0 -139 -1 -139 -3 0 -10 34 -103 40 -110 6 -7 546 175 559 189 2 2 -154 4
-348 4 -284 0 -353 -3 -357 -13z"/>
<path d="M2427 2338 c5 -7 103 -131 218 -275 181 -229 210 -261 220 -245 22
32 296 503 302 518 4 12 -47 14 -372 14 -300 0 -376 -3 -368 -12z"/>
<path d="M3178 2288 c-9 -24 -64 -166 -123 -317 -58 -150 -104 -275 -102 -277
2 -3 157 -3 345 -2 l340 3 -216 317 c-120 174 -219 317 -222 317 -3 1 -13 -18
-22 -41z"/>
<path d="M1496 2172 c-105 -153 -115 -172 -95 -172 8 0 37 33 64 73 51 73 80
92 91 62 5 -11 -11 -43 -45 -91 -28 -40 -51 -77 -51 -81 1 -9 361 -266 366
-261 3 4 -222 597 -230 605 -2 2 -47 -59 -100 -135z"/>
<path d="M2155 2030 c-75 -94 -138 -177 -141 -184 -3 -7 2 -19 11 -26 14 -11
20 -10 40 11 60 62 266 333 263 348 -9 45 -40 18 -173 -149z"/>
<path d="M1351 1910 c-51 -75 -54 -82 -38 -97 21 -21 29 -14 92 78 48 68 49
71 30 85 -10 8 -21 14 -24 14 -3 0 -30 -36 -60 -80z"/>
<path d="M2280 1834 c-217 -74 -396 -137 -399 -139 -2 -3 226 -5 507 -5 282 0
512 3 512 6 0 9 -213 274 -219 273 -3 0 -184 -61 -401 -135z"/>
<path d="M1878 1665 c-3 -3 32 -101 76 -218 45 -116 129 -335 186 -485 58
-149 108 -271 112 -270 6 3 658 968 658 975 0 5 -1027 3 -1032 -2z m297 -55
c0 -24 -2 -25 -83 -28 -74 -3 -83 -5 -78 -20 4 -9 28 -70 53 -135 41 -102 45
-119 32 -132 -8 -8 -19 -11 -27 -6 -7 4 -41 79 -76 167 -47 116 -61 162 -54
172 8 9 41 12 122 10 111 -3 111 -3 111 -28z"/>
<path d="M2931 1648 c-87 -221 -481 -1262 -478 -1264 2 -2 181 189 399 424
217 235 481 520 586 634 106 114 192 212 192 217 0 8 -108 11 -345 11 l-345 0
-9 -22z"/>
<path d="M1171 1643 c19 -29 1143 -1232 1147 -1228 2 2 -11 42 -29 89 l-33 87
-333 326 c-234 228 -331 329 -324 336 6 6 11 17 11 24 0 8 -53 71 -117 141
-64 70 -126 138 -137 151 l-21 24 71 -7 c58 -6 73 -4 84 9 26 31 -6 44 -121
46 -152 3 -157 -3 -72 -94 45 -48 41 -52 -7 -7 -3 3 -34 32 -70 65 -35 33 -57
50 -49 38z m374 -353 c21 -22 37 -40 34 -40 -3 0 -23 18 -44 40 -21 22 -37 40
-34 40 3 0 23 -18 44 -40z"/>
</g>
</svg>
